<?xml version="1.0" encoding="UTF-8"?>
<svg id="Layer_1" data-name="Layer 1" xmlns="http://www.w3.org/2000/svg" viewBox="0 0 47.61 47.31">
  <defs>
    <style>
      .cls-1 {
        fill: #dde;
      }

      .cls-1, .cls-2, .cls-3, .cls-4, .cls-5, .cls-6 {
        stroke: #221132;
        stroke-miterlimit: 10;
        stroke-width: .25px;
      }

      .cls-2 {
        fill: #cbbadb;
      }

      .cls-3 {
        fill: #554577;
      }

      .cls-4 {
        fill: #221132;
      }

      .cls-5 {
        fill: #77679a;
      }

      .cls-6 {
        fill: #fff;
      }
    </style>
  </defs>
  <path class="cls-4" d="M4.28,21.42C2.02,15.56,6.19,5.76,13.05,1.88c5.35-3.02,10.7-1.53,16.19,0,4.88,1.36,11.82,3.3,15.69,10.11,3.13,5.53,2.62,11.43,2.35,14.6-.23,2.69-.75,8.63-4.43,13.46-8.44,11.08-26.2,6.7-33.01,3.71-2.35-1.03-5.62-2.88-7.78-6.56-.34-.58-2.98-5.09-1.46-7.41,1.48-2.26,5.69-.56,6.53-2.41.67-1.48-1.77-3.21-2.84-5.97Z"/>
  <path class="cls-6" d="M6.86,32.13c-1.85-.84-2.23-1.58-3.06-1.38-.96.23-1.71,1.51-1.62,2.58.14,1.8,2.65,3.15,4.69,2.88,1.92-.25,3.62-1.93,3.37-2.79-.18-.62-1.24-.34-3.37-1.3Z"/>
  <path class="cls-5" d="M11.18,12.84c-1.62.42-2.76.71-3.61,1.8-.54.7-1.34,2.2-.77,3.25.85,1.58,4.12.89,4.38,1.92.22.9-2.15,1.8-1.92,2.7.19.76,2.1,1.01,3.49.84,1.56-.19,3.87-1.07,3.97-2.34.11-1.43-2.63-2.2-2.4-3.61.15-.96,1.51-1.01,1.8-2.28.19-.8-.13-1.75-.72-2.28-.94-.84-2.38-.47-4.21,0Z"/>
  <path class="cls-2" d="M22.02,13.65c.84,1.47,3.78,1.54,5.79.95,1.48-.44,4.67-1.89,4.65-4.28-.02-2.03-2.37-3.78-4.31-4.13-1.51-.28-2.14.4-3.32-.18-1.47-.73-1.14-2.11-2.52-2.85-1.38-.74-3.44-.29-4.76.91-.78.71-1.94,2.27-1.5,3.67.72,2.27,5.01,2.02,5.72,4.66.17.61-.02.79.24,1.26Z"/>
  <path class="cls-3" d="M39.25,16.21c-1.27-.44-2.45.12-3.67.72-2.34,1.15-4.84,2.39-4.87,4.63-.03,2.16,2.26,4.26,4.27,4.39,1.66.11,2.67-1.16,3.37-.66.97.71-.69,3.47.3,4.33.84.73,3.18-.26,4.51-1.74,1.06-1.17,1.99-3.22,1.26-4.21-.7-.95-2.33-.1-3.06-1.08-.77-1.02.7-2.38,0-4.27-.35-.96-1.16-1.78-2.1-2.1Z"/>
  <path class="cls-1" d="M34.58,39.33c1.41-.16,3.1-1.95,3.27-3.77.3-3.26-4.31-6.19-6.17-5.36-1.43.64-1.39,3.54-2.68,3.64-.53.04-.65-.45-1.31-.5-1.35-.11-3.04,1.7-3.15,3.63-.02.32-.09,1.68.9,2.53.8.69,2.02.82,2.89.43.98-.43.93-1.26,2.1-1.68.32-.12.92-.33,1.53-.11.67.25.77.81,1.53,1.08,0,0,.46.17,1.11.09Z"/>
</svg>