<?xml version="1.0" encoding="UTF-8"?>
<svg id="Layer_1" data-name="Layer 1" xmlns="http://www.w3.org/2000/svg" viewBox="0 0 45.5 46.26">
  <defs>
    <style>
      .cls-1 {
        fill: #cbbadb;
      }

      .cls-1, .cls-2 {
        stroke: #221132;
        stroke-miterlimit: 10;
        stroke-width: .25px;
      }

      .cls-2 {
        fill: #77679a;
      }
    </style>
  </defs>
  <path class="cls-2" d="M14.39,2.21c-5.06,1.74-8.61,2.96-11.25,7.49-1.69,2.9-4.17,9.13-2.41,13.49,2.66,6.57,12.87,3.69,13.66,7.99.69,3.73-6.7,7.48-6,11.24.59,3.18,6.55,4.19,10.88,3.5,4.87-.78,12.07-4.44,12.38-9.74.35-5.93-8.2-9.14-7.5-14.99.48-4.01,4.71-4.2,5.63-9.49.58-3.33-.4-7.28-2.25-9.49-2.93-3.51-7.44-1.96-13.13,0Z"/>
  <path class="cls-1" d="M25.35,35.59c1.62,3.75,7.25,3.94,11.1,2.42,2.85-1.12,8.96-4.84,8.92-10.93-.04-5.18-4.54-9.65-8.26-10.56-2.9-.71-1.38-7.24-3.64-8.73-2.83-1.85-4.91,2.89-7.56,1-2.64-1.89-6.61-.73-9.13,2.32-1.51,1.82-3.73,5.81-2.88,9.37,1.37,5.79,9.62,5.17,10.98,11.89.32,1.57-.04,2.02.47,3.21Z"/>
</svg>