<?xml version="1.0" encoding="UTF-8"?>
<svg id="Layer_1" data-name="Layer 1" xmlns="http://www.w3.org/2000/svg" viewBox="0 0 47.86 47.94">
  <defs>
    <style>
      .cls-1 {
        fill: #cbbadb;
      }

      .cls-1, .cls-2 {
        stroke: #221132;
        stroke-miterlimit: 10;
        stroke-width: 2px;
      }

      .cls-2 {
        fill: #77679a;
      }
    </style>
  </defs>
  <path class="cls-2" d="M15.34,3.09c-5.08,1.74-8.65,2.96-11.31,7.48C2.33,13.46-.16,19.68,1.61,24.03c2.67,6.56,12.93,3.68,13.73,7.98.69,3.73-6.73,7.47-6.03,11.22.59,3.17,6.58,4.19,10.93,3.49,4.9-.78,12.12-4.43,12.44-9.73.35-5.92-8.24-9.13-7.54-14.96.48-4,4.73-4.19,5.65-9.48.58-3.33-.4-7.26-2.26-9.48-2.95-3.5-7.48-1.95-13.19,0Z"/>
  <path class="cls-1" d="M26.74,36.75c1.63,3.85,7.28,4.04,11.16,2.48,2.86-1.15,9.01-4.97,8.96-11.21-.04-5.32-4.56-9.9-8.3-10.83-2.91-.73-1.39-7.43-3.66-8.96-2.84-1.9-4.94,2.96-7.59,1.02-2.66-1.94-6.64-.75-9.17,2.38-1.51,1.87-3.74,5.96-2.9,9.61,1.38,5.94,9.67,5.3,11.04,12.2.32,1.61-.05,2.08.47,3.3Z"/>
</svg>