<?xml version="1.0" encoding="UTF-8"?>
<svg id="Layer_1" data-name="Layer 1" xmlns="http://www.w3.org/2000/svg" viewBox="0 0 60.72 45.3">
  <defs>
    <style>
      .cls-1 {
        fill: #547;
      }

      .cls-1, .cls-2, .cls-3 {
        stroke: #221132;
        stroke-miterlimit: 10;
        stroke-width: .25px;
      }

      .cls-2 {
        fill: #fff;
      }

      .cls-3 {
        fill: #221132;
      }
    </style>
  </defs>
  <path class="cls-3" d="M4.1,20.51C1.93,14.9,5.92,5.51,12.49,1.8c5.12-2.89,10.24-1.46,15.5,0,4.67,1.3,11.32,3.16,15.02,9.68,3,5.29,2.51,10.94,2.25,13.98-.22,2.58-.72,8.26-4.24,12.89-8.08,10.61-25.08,6.41-31.6,3.55-2.25-.99-5.38-2.76-7.45-6.28-.33-.56-2.85-4.87-1.4-7.09,1.42-2.16,5.45-.54,6.25-2.31.64-1.42-1.69-3.07-2.72-5.72h0Z"/>
  <path class="cls-2" d="M7.08,28.23c-.52.1-1.52.36-2.46,1.14-.47.39-1.71,1.39-1.62,2.58.14,1.8,2.65,3.15,4.69,2.88,1.25-.17,2.91-1.03,3.37-2.79.35-1.35-.12-2.82-1.2-3.81h-2.77Z"/>
  <path class="cls-1" d="M26.93,8.81c-.86-.28-2.69-.87-4.9-.99-1.94-.11-4.78-.27-7.46,1.38-1.97,1.21-4.92,4.06-4.75,7.34.27,5.12,7.95,6.39,8.55,12.76.16,1.74-.34,2.32.26,3.52,1.53,3.02,7.07,3.91,11.22,2.6,4.67-1.48,8.98-6.2,8.21-9.63-.72-3.23-5.55-3.55-5.87-7.11-.2-2.18,1.52-3.08.83-5.2-.6-1.84-2.5-2.98-3.39-3.52-.93-.56-1.7-.82-2.71-1.15Z"/>
</svg>